{"title":"Casting with Cute Half-Asian youngster","uid":10807444,"size":194944596,"categoryP":"porn","categoryS":"movie_clips","magnet":"?xt=urn:btih:1a1ccc8dcd8dd622e1b7cc99393efc4750ef88e3&amp;dn=Casting+with+Cute+Half-Asian+youngster&amp;tr=udp%3A%2F%2Ftracker.openbittorrent.com%3A80&amp;tr=udp%3A%2F%2Fopen.demonii.com%3A1337&amp;tr=udp%3A%2F%2Ftracker.coppersurfer.tk%3A6969&amp;tr=udp%3A%2F%2Fexodus.desync.com%3A6969","seeders":1,"leechers":1,"uploader":"ThousandPeers","files":-1,"time":1408393004,"description":"Format                                   : Flash Video\nFile size                                : 177 MiB\nDuration                                 : 9mn 16s\nOverall bit rate                         : 2 671 Kbps\nWriting application                      : Lavf54.59.106\nWMFSDKVersion                            : 12.0.7601.17514\nWMFSDKNeeded                             : 0.0.0.0000\nVBR Peak                                 : 100\nIsVBR                                    : 1\nBuffer Average                           : 432\n\nVideo\nFormat                                   : AVC\nFormat/Info                              : Advanced Video Codec\nFormat profile                           : &lt;a class=&quot;__cf_email__&quot; href=&quot;/cdn-cgi/l/email-protection&quot; data-cfemail=&quot;0d4f6c7e68616463684d4139233d&quot;&gt;[email&amp;#160;protected]&lt;/a&gt;&lt;script cf-hash='f9e31' type=&quot;text/javascript&quot;&gt;\n/* &lt;![CDATA[ */!function(){try{var t=&quot;currentScript&quot;in document?document.currentScript:function(){for(var t=document.getElementsByTagName(&quot;script&quot;),e=t.length;e--;)if(t[e].getAttribute(&quot;cf-hash&quot;))return t[e]}();if(t&amp;&amp;t.previousSibling){var e,r,n,i,c=t.previousSibling,a=c.getAttribute(&quot;data-cfemail&quot;);if(a){for(e=&quot;&quot;,r=parseInt(a.substr(0,2),16),n=2;a.length-n;n+=2)i=parseInt(a.substr(n,2),16)^r,e+=String.fromCharCode(i);e=document.createTextNode(e),c.parentNode.replaceChild(e,c)}}}catch(u){}}();/* ]]&gt; */&lt;/script&gt;\nFormat settings, CABAC                   : No\nFormat settings, ReFrames                : 2 frames\nCodec ID                                 : 7\nDuration                                 : 9mn 16s\nBit rate                                 : 2 500 Kbps\nWidth                                    : 1 920 pixels\nHeight                                   : 1 080 pixels\nDisplay aspect ratio                     : 16:9\nFrame rate mode                          : Constant\nFrame rate                               : 30.000 fps\nColor space                              : YUV\nChroma subsampling                       : 4:2:0\nBit depth                                : 8 bits\nScan type                                : Progressive\nBits/(Pixel*Frame)                       : 0.040\nStream size                              : 166 MiB (94%)\n\nAudio\nFormat                                   : AAC\nFormat/Info                              : Advanced Audio Codec\nFormat profile                           : LC\nCodec ID                                 : 10\nDuration                                 : 9mn 16s\nBit rate                                 : 188 Kbps\nChannel(s)                               : 2 channels\nChannel positions                        : Front: L R\nSampling rate                            : 44.1 KHz\nCompression mode                         : Lossy\nStream size                              : 12.4 MiB (7%)\n\n","torrent":{"xt":"urn:btih:1a1ccc8dcd8dd622e1b7cc99393efc4750ef88e3","amp;dn":"Casting+with+Cute+Half-Asian+youngster","amp;tr":["udp%3A%2F%2Ftracker.openbittorrent.com%3A80","udp%3A%2F%2Fopen.demonii.com%3A1337","udp%3A%2F%2Ftracker.coppersurfer.tk%3A6969","udp%3A%2F%2Fexodus.desync.com%3A6969"],"infoHash":"1a1ccc8dcd8dd622e1b7cc99393efc4750ef88e3","infoHashBuffer":{"type":"Buffer","data":[26,28,204,141,205,141,214,34,225,183,204,153,57,62,252,71,80,239,136,227]},"announce":[],"urlList":[]}}